<?xml version="1.0" ?>
<svg
  data-name="Layer 1"
  id="Layer_1"
  viewBox="0 0 512 512"
  xmlns="http://www.w3.org/2000/svg"
><title /><path
    d="M457.61,359.42a49.12,49.12,0,0,0,8.24-27.17,49.67,49.67,0,0,0-49.62-49.61h0a39.09,39.09,0,0,0,1.2-9.6,41.16,41.16,0,0,0-41.11-41.11A40.4,40.4,0,0,0,360,235.36c-4.53-23.77-19.08-43.9-38.72-56.5a34.23,34.23,0,0,0,3.29-13.94,35.37,35.37,0,0,0-20.08-31.8,56.7,56.7,0,0,0,4-20.83,58.78,58.78,0,0,0-58.72-58.72,57.92,57.92,0,0,0-39.43,15.48,48.6,48.6,0,0,0-92,13,37.07,37.07,0,0,0-33,36.8c0,.86,0,1.71.11,2.57a39.64,39.64,0,0,0,5.58,78.88h114.8A85.76,85.76,0,0,0,189.8,237.5a64.54,64.54,0,0,0-42.31-15.79,65.48,65.48,0,0,0-65.41,65.41,64.73,64.73,0,0,0,8.7,32.51c-28-1.57-52.42,21.06-52.42,49.32a49.47,49.47,0,0,0,49.41,49.41h57.86a5.69,5.69,0,1,0,0-11.38H87.77a38,38,0,1,1,14.69-73.11,5.69,5.69,0,0,0,6.29-9.2A53.88,53.88,0,1,1,189.87,254,5.69,5.69,0,0,0,200,250.58a75.34,75.34,0,0,1,75-74.19c38.61,0,71.45,30.12,74.77,68.58a5.67,5.67,0,0,0,3.31,4.69,5.75,5.75,0,0,0,5.71-.59,29.45,29.45,0,0,1,17.43-5.77A29.77,29.77,0,0,1,406,273a29.25,29.25,0,0,1-3.43,13.53,5.69,5.69,0,0,0,6.16,8.19,39.18,39.18,0,0,1,7.47-.75,38.09,38.09,0,0,1,28.08,64,5.69,5.69,0,0,0,2.78,9.35,20.12,20.12,0,0,1-5,39.63H395.85a5.69,5.69,0,1,0,0,11.38H442.1a31.5,31.5,0,0,0,15.51-58.94ZM215.94,189H91.07A28.3,28.3,0,0,1,62.81,160.7c0-15.52,12.57-28.16,29-28.16H92a5.59,5.59,0,0,0,4.65-2.12,5.69,5.69,0,0,0,1.06-5,25.71,25.71,0,0,1-1-6.54c0-14.07,11.39-25.54,26.29-25.54h.21c3.06.4,5.75-2.26,5.91-5.38a37.23,37.23,0,0,1,73.42-6.79,5.68,5.68,0,0,0,10,2.17,47.07,47.07,0,0,1,79.14,50.38,5.69,5.69,0,0,0,3.59,8.09,24,24,0,0,1,17.85,23.11,23.39,23.39,0,0,1-1.78,8.57A84.82,84.82,0,0,0,275.08,165,85.79,85.79,0,0,0,215.94,189Z"
  /><path
    d="M363.81,430h-7.4V334.44A15.51,15.51,0,0,0,340.93,319H204.3a15.51,15.51,0,0,0-15.48,15.49V430h-7.4a5.69,5.69,0,0,0-5.69,5.69v24.11a11.13,11.13,0,0,0,11.12,11.11H358.38a11.13,11.13,0,0,0,11.12-11.11V435.67A5.69,5.69,0,0,0,363.81,430ZM200.2,334.44a4.11,4.11,0,0,1,4.1-4.11H340.93a4.11,4.11,0,0,1,4.1,4.11V430H200.2ZM358.12,459.52l-171,.26V441.36h171Z"
  /><path
    d="M326.35,343.87H218.89a5.69,5.69,0,0,0-5.69,5.69v63.11a5.69,5.69,0,0,0,5.69,5.69H326.35a5.69,5.69,0,0,0,5.69-5.69V349.56A5.69,5.69,0,0,0,326.35,343.87ZM320.66,407H224.57V355.25h96.09Z"
  /></svg>
