<svg fill="#000000" xmlns="http://www.w3.org/2000/svg"  viewBox="0 0 24 24" width="48px" height="48px"><path d="M 9.5 1 C 7.026562 1 5 3.026562 5 5.5 C 5 6.9426457 5.7334437 8.1748313 6.7988281 9 C 5.7334437 9.8251687 5 11.057354 5 12.5 C 5 13.942646 5.7334437 15.174831 6.7988281 16 C 5.7334437 16.825169 5 18.057354 5 19.5 C 5 21.973438 7.026562 24 9.5 24 C 11.973438 24 14 21.973438 14 19.5 L 14 16 L 14 10 L 16.5 10 C 18.973438 10 21 7.973438 21 5.5 C 21 3.026562 18.973438 1 16.5 1 L 13 1 L 9.5 1 z M 9.5 3 L 12 3 L 12 8 L 9.5 8 C 8.107438 8 7 6.892562 7 5.5 C 7 4.107438 8.107438 3 9.5 3 z M 14 3 L 16.5 3 C 17.892562 3 19 4.107438 19 5.5 C 19 6.892562 17.892562 8 16.5 8 L 14 8 L 14 3 z M 9.5 10 L 12 10 L 12 15 L 9.5 15 C 8.107438 15 7 13.892562 7 12.5 C 7 11.107438 8.107438 10 9.5 10 z M 17 10 A 3 3 0 0 0 17 16 A 3 3 0 0 0 17 10 z M 9.5 17 L 12 17 L 12 19.5 C 12 20.892562 10.892562 22 9.5 22 C 8.107438 22 7 20.892562 7 19.5 C 7 18.107438 8.107438 17 9.5 17 z"/></svg>