<svg
  xmlns="http://www.w3.org/2000/svg"
  viewBox="0 0 48 48"
  width="48px"
  height="48px"
><path
    fill="#80deea"
    d="M24,34C11.1,34,1,29.6,1,24c0-5.6,10.1-10,23-10c12.9,0,23,4.4,23,10C47,29.6,36.9,34,24,34z M24,16	c-12.6,0-21,4.1-21,8c0,3.9,8.4,8,21,8s21-4.1,21-8C45,20.1,36.6,16,24,16z"
  /><path
    fill="#80deea"
    d="M15.1,44.6c-1,0-1.8-0.2-2.6-0.7C7.6,41.1,8.9,30.2,15.3,19l0,0c3-5.2,6.7-9.6,10.3-12.4c3.9-3,7.4-3.9,9.8-2.5	c2.5,1.4,3.4,4.9,2.8,9.8c-0.6,4.6-2.6,10-5.6,15.2c-3,5.2-6.7,9.6-10.3,12.4C19.7,43.5,17.2,44.6,15.1,44.6z M32.9,5.4	c-1.6,0-3.7,0.9-6,2.7c-3.4,2.7-6.9,6.9-9.8,11.9l0,0c-6.3,10.9-6.9,20.3-3.6,22.2c1.7,1,4.5,0.1,7.6-2.3c3.4-2.7,6.9-6.9,9.8-11.9	c2.9-5,4.8-10.1,5.4-14.4c0.5-4-0.1-6.8-1.8-7.8C34,5.6,33.5,5.4,32.9,5.4z"
  /><path
    fill="#80deea"
    d="M33,44.6c-5,0-12.2-6.1-17.6-15.6C8.9,17.8,7.6,6.9,12.5,4.1l0,0C17.4,1.3,26.2,7.8,32.7,19	c3,5.2,5,10.6,5.6,15.2c0.7,4.9-0.3,8.3-2.8,9.8C34.7,44.4,33.9,44.6,33,44.6z M13.5,5.8c-3.3,1.9-2.7,11.3,3.6,22.2	c6.3,10.9,14.1,16.1,17.4,14.2c1.7-1,2.3-3.8,1.8-7.8c-0.6-4.3-2.5-9.4-5.4-14.4C24.6,9.1,16.8,3.9,13.5,5.8L13.5,5.8z"
  /><circle cx="24" cy="24" r="4" fill="#80deea" /></svg>

<svg xmlns="http://www.w3.org/2000/svg" width="24" height="24" viewBox="0 0 24 24"><path fill="#80deea" d="M12.967 21.893c-.703.07-1.377.107-1.959.107-3.412 0-8.008-1.002-8.008-2.614v-2.04c2.117 1.342 5.17 1.78 8.008 1.78.339 0 .681-.007 1.022-.021-.06-.644-.036-1.28.129-2.019-.408.026-.797.04-1.151.04-3.412 0-8.008-1.001-8.008-2.613v-2.364c2.116 1.341 5.17 1.78 8.008 1.78 1.021 0 2.068-.06 3.089-.196 1.91-1.766 4.603-2.193 6.903-1.231v-8.14c0-3.362-5.965-4.362-9.992-4.362-4.225 0-10.008 1.001-10.008 4.361v15.277c0 3.362 6.209 4.362 10.008 4.362 1.081 0 2.359-.086 3.635-.281-.669-.495-1.239-1.115-1.676-1.826zm-1.959-19.893c3.638 0 7.992.909 7.992 2.361 0 1.581-5.104 2.361-7.992 2.361-3.412.001-8.008-.905-8.008-2.361 0-1.584 4.812-2.361 8.008-2.361zm-8.008 4.943c2.117 1.342 5.17 1.78 8.008 1.78 2.829 0 5.876-.438 7.992-1.78v2.372c0 1.753-5.131 2.614-7.992 2.614-3.426-.001-8.008-1.007-8.008-2.615v-2.371zm15.5 7.057c-2.483 0-4.5 2.015-4.5 4.5s2.017 4.5 4.5 4.5 4.5-2.015 4.5-4.5-2.017-4.5-4.5-4.5zm-.564 6.55l-1.839-1.778.735-.758 1.09 1.05 2.43-2.439.751.744-3.167 3.181z"/></svg>